<svg xmlns="http://www.w3.org/2000/svg" viewBox="1170 141 64.7 72.6">
  <defs>
    <style>
      .cls-1 {
        fill: #c3ab7e;
      }
    </style>
  </defs>
  <g id="Amblem" transform="translate(1170 141)">
    <path id="Path_1" data-name="Path 1" class="cls-1" d="M26.6,40a15.5,15.5,0,0,0-10.7-3.9L16.1,0H0V7.7H7.8V72.5h8.1l13.9.1,1.2-19,.1-1.7C31.1,46.5,29.6,42.6,26.6,40ZM23.1,53.6,22.3,65H15.9V43.8a6.642,6.642,0,0,1,5.5,2.4C22.8,47.7,23.3,50.2,23.1,53.6Z"/>
    <path id="Path_2" data-name="Path 2" class="cls-1" d="M56.8,35.9V0H48.7V35.9A15.913,15.913,0,0,0,38,39.7c-2.9,2.6-4.4,6.5-4.4,11.8l.1,1.7,1.1,19.3,22,.1.1-29.1h7.8V36ZM48.7,64.7H42.3l-.8-11.4c-.2-3.4.3-5.9,1.7-7.4a7.015,7.015,0,0,1,5.5-2.3Z"/>
  </g>
</svg>
