<svg xmlns="http://www.w3.org/2000/svg" viewBox="85 135 196.92 77.854"><defs><style>.a{fill:#d4d2d3;}.b{fill:#a89a5e;}</style></defs><g transform="translate(85 135)"><g transform="translate(0 4.58)"><path class="a" d="M0,5H33.947v6.819c0,10.381-2.108,17.912-6.434,22.8Q33.5,39.653,33.5,48.659L33.392,50.8l-1.664,26.46H0ZM19.3,27.084c2.219-2.646,3.328-6.412,3.328-11.195V14.668H11.316V31.155A9.919,9.919,0,0,0,19.3,27.084Zm1.775,40.5L22.187,50.8c.333-5.292-1.109-8.854-4.1-10.686a27.987,27.987,0,0,1-6.767.712V67.589Z" transform="translate(0 -4.491)"/><path class="a" d="M76.9,5h33.836V77.257H99.42V14.668H88.327V77.257H76.9Z" transform="translate(8.411 -4.491)"/><path class="a" d="M111.6,5h17.084A20.508,20.508,0,0,1,137,6.73a16.041,16.041,0,0,1,6.213,4.987,12.146,12.146,0,0,1,2.33,7.327l-1.331,44.372a13.861,13.861,0,0,1-4.659,9.872A15.637,15.637,0,0,1,128.8,77.257H111.711V5Zm16.973,62.589c2.552,0,3.772-1.832,3.883-5.5l1.331-41.828a4.783,4.783,0,0,0-1.331-4.071,5.424,5.424,0,0,0-3.883-1.425h-5.658V67.691h5.658Z" transform="translate(12.206 -4.491)"/><path class="a" d="M150.407,8.978c3-2.951,7.322-4.478,13.2-4.478,5.769,0,10.1,1.527,13.091,4.58s4.327,7.124,4.216,12.314l-1.331,41.421q-.5,7.022-4.327,10.991c-2.552,2.646-6.434,3.969-11.537,3.969-5.214,0-9.208-1.323-11.759-3.969-2.662-2.646-4.1-6.31-4.216-10.991L146.3,21.292C146.08,16.1,147.522,11.929,150.407,8.978Zm8.32,52.412a9.378,9.378,0,0,0,1.331,5.089,4.891,4.891,0,0,0,7.1,0,10.636,10.636,0,0,0,1.22-5.089l1.109-38.673c0-2.951-.444-5.089-1.331-6.513a4.972,4.972,0,0,0-4.548-2.137q-3.328,0-4.659,2.137t-1.331,6.412Z" transform="translate(15.999 -4.5)"/></g><g transform="translate(75.548)"><path class="a" d="M74.645,14.858,76.753,0H68.1l.333,14.858Z" transform="translate(-68.1)"/></g><g transform="translate(38.569 4.987)"><path class="a" d="M68.529,4.9V77.259H57.213V37.874H46.563l1.22,39.385H36.468L34.8,27.289c-.333-7.531,1.553-13.128,5.769-16.69S49.558,5.205,56.88,5C59.1,5,68.529,4.9,68.529,4.9ZM45.9,28.205H57.213V14.975c-3.772,0-6.656,1.018-8.653,2.951s-2.884,5.089-2.662,9.465Z" transform="translate(-34.766 -4.9)"/></g><g transform="translate(60.572 33.075)"><path class="b" d="M60.147,32.5,58.039,50.513h.333L63.586,32.5h3.772l-1,18.013.333-.1c2.441-4.376,3.661-8.243,3.661-11.4a8.4,8.4,0,0,0-.888-3.867l.444-2.646h5.325l-.444,2.748-1.775.1a12.137,12.137,0,0,1,.444,3.562,20.783,20.783,0,0,1-1.22,6.513,49,49,0,0,1-3.883,7.938h-5.1l.888-13.027-3.55,13.027H54.6L56.819,32.6h3.328Z" transform="translate(-54.6 -32.5)"/><path class="b" d="M74.684,36.569a4.274,4.274,0,0,1,1.664-2.951A5.88,5.88,0,0,1,79.787,32.6h4.881l-1,5.9H80.453l.555-3.053H79.9a1.87,1.87,0,0,0-1.331.407,1.578,1.578,0,0,0-.555,1.119l-.555,3.155h4.216l-.444,2.748H77.014l-1.331,7.735h2.662l.666-4.071h3.217l-1.22,6.819H71.8Z" transform="translate(-52.719 -32.498)"/><path class="b" d="M88.306,50.513l.888-7.124a7.1,7.1,0,0,1,2.441-4.783,7.98,7.98,0,0,1,4.992-1.527l.444-1.832h-6.1l.444-2.748h9.319L97.625,50.513h1.886L97.958,57.23H94.63l1-3.969H88.861l-.444,3.969H85.2l.666-6.717Zm3.217,0h2.884l1.886-10.584a4.28,4.28,0,0,0-2.773.916,4.108,4.108,0,0,0-1.22,2.748Z" transform="translate(-51.253 -32.5)"/><path class="b" d="M102.55,32.5h9.762l-.333,2.137A21.737,21.737,0,0,1,110.87,38.5,9.608,9.608,0,0,1,109.1,41.15,4.269,4.269,0,0,1,110.2,44.1a10.438,10.438,0,0,1-.222,1.73l-1.775,7.429h-3.217l1.775-7.531a7.367,7.367,0,0,0,.222-1.425,1.632,1.632,0,0,0-.777-1.628,9.554,9.554,0,0,1-1.886.2l-2,10.482H99Zm3.661,7.124a4.343,4.343,0,0,0,1.553-1.527,5.957,5.957,0,0,0,.887-2.442l.111-.407h-3.217l-.888,4.783A2.1,2.1,0,0,0,106.211,39.624Z" transform="translate(-49.744 -32.5)"/><path class="b" d="M113,36.569a4.274,4.274,0,0,1,1.664-2.951A5.88,5.88,0,0,1,118.1,32.6h4.881l-1,5.9h-3.217l.555-3.053h-1.109a1.87,1.87,0,0,0-1.331.407,1.578,1.578,0,0,0-.555,1.119l-.555,3.155h4.216l-.444,2.748h-4.216l-1.331,7.735h2.662l.666-4.071h3.217l-1.22,6.819H110Z" transform="translate(-48.541 -32.498)"/></g></g></svg>